HIERARCHY
ROOT hips
{
  OFFSET 0 10.9056651 0.03933671698
  CHANNELS 6 Xposition Yposition Zposition Yrotation Xrotation Zrotation
  JOINT spine
  {
    OFFSET -6.5913815e-31 0.564535260299999 0
    CHANNELS 3 Yrotation Xrotation Zrotation
    JOINT chest
    {
      OFFSET 0 1.225696680698804 0
      CHANNELS 3 Yrotation Xrotation Zrotation
      JOINT upperChest
      {
        OFFSET 0 1.1777955715163502 0
        CHANNELS 3 Yrotation Xrotation Zrotation
        JOINT neck
        {
          OFFSET 0 1.493297465019708 0
          CHANNELS 3 Yrotation Xrotation Zrotation
          JOINT head
          {
            OFFSET 0 0.825720494384254 0
            CHANNELS 3 Yrotation Xrotation Zrotation
            JOINT leftEye
            {
              OFFSET 0.18304655709999998 0.6901645300000001 0.23533690400000007
              CHANNELS 3 Yrotation Xrotation Zrotation
              End Site
              {
                OFFSET 0.18304655709999998 0.6901645300000001 0.23533690400000007
              }
            }
            JOINT rightEye
            {
              OFFSET -0.18304645479999998 0.6901645300000001 0.2353369854000001
              CHANNELS 3 Yrotation Xrotation Zrotation
              End Site
              {
                OFFSET -0.18304645479999998 0.6901645300000001 0.2353369854000001
              }
            }
          }
        }
        JOINT leftShoulder
        {
          OFFSET 0.23056015730000004 1.1458171999999995 0
          CHANNELS 3 Yrotation Xrotation Zrotation
          JOINT leftUpperArm
          {
            OFFSET 0.7638935272422844 0 0
            CHANNELS 3 Yrotation Xrotation Zrotation
            JOINT leftLowerArm
            {
              OFFSET 2.372967839000001 0 0
              CHANNELS 3 Yrotation Xrotation Zrotation
              JOINT leftHand
              {
                OFFSET 2.2110674175677087 0 0
                CHANNELS 3 Yrotation Xrotation Zrotation
                JOINT leftIndexProximal
                {
                  OFFSET 0.6741434040000008 0.08001303673000093 0.21311209370000003
                  CHANNELS 3 Yrotation Xrotation Zrotation
                  JOINT leftIndexIntermediate
                  {
                    OFFSET 0.3424334528999998 0 -0.007006000727000014
                    CHANNELS 3 Yrotation Xrotation Zrotation
                    JOINT leftIndexDistal
                    {
                      OFFSET 0.21062725750000022 -0.006412267400000449 -0.008554033939000005
                      CHANNELS 3 Yrotation Xrotation Zrotation
                      End Site
                      {
                        OFFSET 0.21062725750000022 -0.006412267400000449 -0.008554033939000005
                      }
                    }
                  }
                }
                JOINT leftLittleProximal
                {
                  OFFSET 0.6290287080000001 0.08001303673000093 -0.31631325000000005
                  CHANNELS 3 Yrotation Xrotation Zrotation
                  JOINT leftLittleIntermediate
                  {
                    OFFSET 0.32370477919999985 0 2.4586916000379766e-7
                    CHANNELS 3 Yrotation Xrotation Zrotation
                    JOINT leftLittleDistal
                    {
                      OFFSET 0.18656223960000062 0.000001311302189943575 -1.6391277328497988e-7
                      CHANNELS 3 Yrotation Xrotation Zrotation
                      End Site
                      {
                        OFFSET 0.18656223960000062 0.000001311302189943575 -1.6391277328497988e-7
                      }
                    }
                  }
                }
                JOINT leftMiddleProximal
                {
                  OFFSET 0.6833271082000002 0.08001434804000196 0.02219256017
                  CHANNELS 3 Yrotation Xrotation Zrotation
                  JOINT leftMiddleIntermediate
                  {
                    OFFSET 0.38150238940000036 -0.000001311302189943575 8.195639099317642e-8
                    CHANNELS 3 Yrotation Xrotation Zrotation
                    JOINT leftMiddleDistal
                    {
                      OFFSET 0.23535448309999996 0.000001311302189943575 -8.195639099317642e-8
                      CHANNELS 3 Yrotation Xrotation Zrotation
                      End Site
                      {
                        OFFSET 0.23535448309999996 0.000001311302189943575 -8.195639099317642e-8
                      }
                    }
                  }
                }
                JOINT leftRingProximal
                {
                  OFFSET 0.6755425600000008 0.08001303673000093 -0.14731779370000012
                  CHANNELS 3 Yrotation Xrotation Zrotation
                  JOINT leftRingIntermediate
                  {
                    OFFSET 0.353890955 0.000001311302189943575 0
                    CHANNELS 3 Yrotation Xrotation Zrotation
                    JOINT leftRingDistal
                    {
                      OFFSET 0.2042313899999999 0 -8.195639099317642e-8
                      CHANNELS 3 Yrotation Xrotation Zrotation
                      End Site
                      {
                        OFFSET 0.2042313899999999 0 -8.195639099317642e-8
                      }
                    }
                  }
                }
                JOINT leftThumbProximal
                {
                  OFFSET 0.0362791419100007 -0.10850762999999852 0.17306960000000005
                  CHANNELS 3 Yrotation Xrotation Zrotation
                  JOINT leftThumbIntermediate
                  {
                    OFFSET 0.36417451509999954 -0.022361636000001406 0.3280963707999999
                    CHANNELS 3 Yrotation Xrotation Zrotation
                    JOINT leftThumbDistal
                    {
                      OFFSET 0.23229259240000044 -0.010517954700000054 0.19135369000000008
                      CHANNELS 3 Yrotation Xrotation Zrotation
                      End Site
                      {
                        OFFSET 0.23229259240000044 -0.010517954700000054 0.19135369000000008
                      }
                    }
                  }
                }
              }
            }
          }
        }
        JOINT rightShoulder
        {
          OFFSET -0.23056015729999996 1.1458171999999995 0
          CHANNELS 3 Yrotation Xrotation Zrotation
          JOINT rightUpperArm
          {
            OFFSET -0.7638935272422845 0 0
            CHANNELS 3 Yrotation Xrotation Zrotation
            JOINT rightLowerArm
            {
              OFFSET -2.3729678390000024 0 0
              CHANNELS 3 Yrotation Xrotation Zrotation
              JOINT rightHand
              {
                OFFSET -2.211067417567708 0 0
                CHANNELS 3 Yrotation Xrotation Zrotation
                JOINT rightIndexProximal
                {
                  OFFSET -0.6741434040000008 0.08001303673000093 0.21311209370000003
                  CHANNELS 3 Yrotation Xrotation Zrotation
                  JOINT rightIndexIntermediate
                  {
                    OFFSET -0.3424334528999998 0 -0.007006000727000014
                    CHANNELS 3 Yrotation Xrotation Zrotation
                    JOINT rightIndexDistal
                    {
                      OFFSET -0.21062725750000022 -0.006412267400000449 -0.008554033939000005
                      CHANNELS 3 Yrotation Xrotation Zrotation
                      End Site
                      {
                        OFFSET -0.21062725750000022 -0.006412267400000449 -0.008554033939000005
                      }
                    }
                  }
                }
                JOINT rightLittleProximal
                {
                  OFFSET -0.6290287080000001 0.08001303673000093 -0.31631325000000005
                  CHANNELS 3 Yrotation Xrotation Zrotation
                  JOINT rightLittleIntermediate
                  {
                    OFFSET -0.32370477919999985 0 2.4586916000379766e-7
                    CHANNELS 3 Yrotation Xrotation Zrotation
                    JOINT rightLittleDistal
                    {
                      OFFSET -0.18656223960000062 0.000001311302189943575 -1.6391277328497988e-7
                      CHANNELS 3 Yrotation Xrotation Zrotation
                      End Site
                      {
                        OFFSET -0.18656223960000062 0.000001311302189943575 -1.6391277328497988e-7
                      }
                    }
                  }
                }
                JOINT rightMiddleProximal
                {
                  OFFSET -0.6833271082000002 0.08001434804000196 0.02219256017
                  CHANNELS 3 Yrotation Xrotation Zrotation
                  JOINT rightMiddleIntermediate
                  {
                    OFFSET -0.38150238940000036 -0.000001311302189943575 8.195639099317642e-8
                    CHANNELS 3 Yrotation Xrotation Zrotation
                    JOINT rightMiddleDistal
                    {
                      OFFSET -0.23535448309999996 0.000001311302189943575 -8.195639099317642e-8
                      CHANNELS 3 Yrotation Xrotation Zrotation
                      End Site
                      {
                        OFFSET -0.23535448309999996 0.000001311302189943575 -8.195639099317642e-8
                      }
                    }
                  }
                }
                JOINT rightRingProximal
                {
                  OFFSET -0.6755425600000008 0.08001303673000093 -0.14731779370000012
                  CHANNELS 3 Yrotation Xrotation Zrotation
                  JOINT rightRingIntermediate
                  {
                    OFFSET -0.353890955 0.000001311302189943575 0
                    CHANNELS 3 Yrotation Xrotation Zrotation
                    JOINT rightRingDistal
                    {
                      OFFSET -0.2042313899999999 0 -8.195639099317642e-8
                      CHANNELS 3 Yrotation Xrotation Zrotation
                      End Site
                      {
                        OFFSET -0.2042313899999999 0 -8.195639099317642e-8
                      }
                    }
                  }
                }
                JOINT rightThumbProximal
                {
                  OFFSET -0.0362791419100007 -0.10850762999999852 0.17306960000000005
                  CHANNELS 3 Yrotation Xrotation Zrotation
                  JOINT rightThumbIntermediate
                  {
                    OFFSET -0.36417451509999954 -0.022361636000001406 0.3280963707999999
                    CHANNELS 3 Yrotation Xrotation Zrotation
                    JOINT rightThumbDistal
                    {
                      OFFSET -0.23229259240000044 -0.010517954700000054 0.19135369000000008
                      CHANNELS 3 Yrotation Xrotation Zrotation
                      End Site
                      {
                        OFFSET -0.23229259240000044 -0.010517954700000054 0.19135369000000008
                      }
                    }
                  }
                }
              }
            }
          }
        }
      }
    }
  }
  JOINT leftUpperLeg
  {
    OFFSET 0.79362624 -0.4312191015000003 0
    CHANNELS 3 Yrotation Xrotation Zrotation
    JOINT leftLowerLeg
    {
      OFFSET 0 -4.386984560661179 0
      CHANNELS 3 Yrotation Xrotation Zrotation
      JOINT leftFoot
      {
        OFFSET 0 -4.942559600000001 -0.2726427748000001
        CHANNELS 3 Yrotation Xrotation Zrotation
        JOINT leftToes
        {
          OFFSET 0 -0.6796518563999998 1.08044673
          CHANNELS 3 Yrotation Xrotation Zrotation
          End Site
          {
            OFFSET 0 -0.6796518563999998 1.08044673
          }
        }
      }
    }
  }
  JOINT rightUpperLeg
  {
    OFFSET -0.79362624 -0.4312191015000003 0
    CHANNELS 3 Yrotation Xrotation Zrotation
    JOINT rightLowerLeg
    {
      OFFSET 0 -4.386984560661179 0
      CHANNELS 3 Yrotation Xrotation Zrotation
      JOINT rightFoot
      {
        OFFSET 0 -4.942559600000001 -0.2726427748000001
        CHANNELS 3 Yrotation Xrotation Zrotation
        JOINT rightToes
        {
          OFFSET 0 -0.6796518563999998 1.08044673
          CHANNELS 3 Yrotation Xrotation Zrotation
          End Site
          {
            OFFSET 0 -0.6796518563999998 1.08044673
          }
        }
      }
    }
  }
}
MOTION
Frames: 4
Frame Time: 0.03333333333333333
0.5195973515510559 -5.190048396966553 1.9405264854431152 3.9211926324693036 -0.2563935639866628 -0.26809865173222575 -0.8442320456037431 -0.5439350874200515 -0.03576403691474982 -1.0027192060040349 -1.7719952263261276 -0.3894479764938111 0 0 0 -0.5211397082139929 0.43102093844282013 3.8784019025200114 2.2246181435269308 -21.875519525841653 -4.222251299916393 0 0 0 0 0 0 -7.8408390935060055 0.8679920291629817 -3.1281453138434547 -49.021315006416245 -20.687325756045222 -37.41988059821999 -107.05072977647731 -4.2117661989994755 7.686789813149895 0.7648556098097026 0.7055487849328077 35.721037783244576 -0.7329566672696216 0.04371431549673348 6.7809283445531445 0.01387690807208417 8.171249034346507e-7 -0.017586973881500746 -0.006658369695021115 5.246904062470472e-7 -0.008642938152196536 3.5347961160735917 -0.4815672501631016 7.218836069440124 -4.082741582544526 -0.014207970893056258 -0.47449254832592624 -0.006758449640772338 0.000020379650932521195 -0.008641810904204867 -0.7331816716331735 0.0437455883006893 6.79680819101896 0.005995294821761996 -0.000009318056699620984 -0.03346315331558742 0.0033379068568787427 0.000009040400484371953 -0.00876617754039315 -0.7271974724865526 0.043032660421214085 6.780857191223465 0.0018779095269951492 -0.00000115454480981475 -0.01743197728435645 0.0009409959205926785 7.528314917706755e-7 -0.008741103776463057 -0.7515926221429955 -38.3417851550875 17.67209159357839 14.612630794929249 5.516724904172849 11.484044368188771 4.4345688956548 0.5423695163722009 7.349776404092173 10.10017965988958 2.6112331014059222 9.189010324887533 35.268592179448575 -24.63933617443567 42.71260267116599 110.49521306640679 -4.0656489495479 -7.979547759915162 2.717801978554113 4.956326620777703 -18.2145036710887 1.494603391674696 0.1818108027738111 -14.045006736581117 0.028936934506373316 -0.000003289662668366939 0.002935975821964073 -0.010959249331754904 -0.0000043459909318405995 0.007952073536791188 1.5706444991027475 0.20084756669311205 -14.046365965798314 0.09663128848391717 -0.00001167021540608078 0.002061511923565922 -0.057756838093381356 -0.000016070027633352356 0.008558986524751377 1.4570625508555126 0.17242614470427647 -14.044623236049643 0.09703126085663481 -0.000003827532224547599 0.0020563642687952675 -0.037757015793977035 -0.000004630668997604301 0.008298233720164156 1.5302029212420216 0.19071233387578537 -14.045465611928803 -0.02575850065255279 -0.0000023327961002255075 0.003642506862432864 -0.013759015612112336 -0.000001482539485896238 0.007988239687901376 1.5001835152255407 -28.631683707958448 -27.48297925428166 -7.661026318901214 4.192205745150038 -0.52408714472544 0.858446434876372 -1.5602948157312537 -1.9607373507589345 -7.579398668235794 -11.926022008907543 12.81336569088328 170.72487897879697 61.45571787791673 167.0501733037124 0.9951225129525318 -13.752616491320065 -4.956292328144574 0.13410949309281955 -41.121772760061674 -2.5034607783591674 -1.138809445374929 -7.693613699945568 -11.205236679291078 -160.7861121522941 62.00334287187732 -157.79491305298723 -0.5868853039810467 -15.82155709337186 2.6947887464267226 -0.09392083588363713 -15.807474671548185 2.8772702022638263
0.5195589661598206 -5.189841449639893 1.9405492544174194 3.9414146361054323 -0.2700691878071349 -0.27329746629572155 -0.8525096992531987 -0.5140499214664637 -0.03263808705691976 -1.011864840885767 -1.7324366564825475 -0.3894584932212744 0 0 0 -0.5223532297673555 0.4644568297063035 3.86674714369353 2.2037017787444833 -22.003581195345287 -4.226113887060898 0 0 0 0 0 0 -7.8408390935060055 0.8679920291629817 -3.1281453138434547 -49.0748229214189 -20.71995715668606 -37.40119421226102 -107.20040650536589 -4.205764206157421 7.699685281159055 0.8039891525790519 0.9632832658956069 35.65454202794884 -0.7329566672696216 0.04371431549673348 6.7809283445531445 0.01387690807208417 8.171249034346507e-7 -0.017586973881500746 -0.006658369695021115 5.246904062470472e-7 -0.008642938152196536 3.5347961160735917 -0.4815672501631016 7.218836069440124 -4.082741582544526 -0.014207970893056258 -0.47449254832592624 -0.006758449640772338 0.000020379650932521195 -0.008641810904204867 -0.7331816716331735 0.0437455883006893 6.79680819101896 0.005995294821761996 -0.000009318056699620984 -0.03346315331558742 0.0033379068568787427 0.000009040400484371953 -0.00876617754039315 -0.7271974724865526 0.043032660421214085 6.780857191223465 0.0018779095269951492 -0.00000115454480981475 -0.01743197728435645 0.0009409959205926785 7.528314917706755e-7 -0.008741103776463057 -0.7515926221429955 -38.3417851550875 17.67209159357839 14.612630794929249 5.516724904172849 11.484044368188771 4.4345688956548 0.5423695163722009 7.349776404092173 10.052901530817708 2.6031512385590876 9.170464966135079 35.324065801459504 -24.661702827037775 42.66956283532282 110.63491175135808 -4.0593827278252 -7.991255280123093 2.8047777106715843 5.025297686203778 -18.24606693065555 1.494597097204636 0.1818018914665158 -14.044981059612649 0.028933932958805926 0.000002552811504648933 0.0029488735152672424 -0.010959249331754904 -0.0000043459909318405995 0.007952073536791188 1.5706379914847377 0.20083857533415872 -14.046338632284796 0.09662828694018565 -0.000005860565982266042 0.0020744244161853297 -0.057756838093381356 -0.000016070027633352356 0.008558986524751377 1.457056149594471 0.17241722006121957 -14.044596730841876 0.09702825264287708 0.000002008292197406894 0.002069264880287373 -0.037757015793977035 -0.000004630668997604301 0.008298233720164156 1.5301963068191693 0.19070336920284095 -14.045439106688724 -0.025761505535332012 0.0000035137583427801203 0.0036554026797502603 -0.013759015612112336 -0.000001482539485896238 0.007988239687901376 1.5001835152255407 -28.631683707958448 -27.48297925428166 -7.661026318901214 4.192205745150038 -0.52408714472544 0.858446434876372 -1.5602948157312537 -1.9607373507589345 -7.609691228967511 -11.916035186087907 12.813271062723746 170.77203472300278 61.45928442206866 167.0985742501226 0.9976700102570245 -13.739164200119816 -4.978827149367785 0.1353322630449882 -41.09624997456047 -2.520644330279393 -1.1863967610360973 -7.672904770487181 -11.212104267939132 -160.79329878409993 62.019803676964926 -157.8037453219637 -0.5872958587433839 -15.81623458580302 2.683049921829171 -0.09462234473476916 -15.82030409965579 2.8881147296145846
0.5191805362701416 -5.1897117499328616 1.9403941631317139 3.936345249998618 -0.2763594099835615 -0.27991794861070296 -0.8521804838648392 -0.5069844506275915 -0.033866510140512576 -1.010916014067025 -1.7207676365297964 -0.39254510104717477 0 0 0 -0.5264202023269542 0.4480571322059783 3.8661282548295195 2.1857243222532707 -22.063754803324663 -4.23197771876524 0 0 0 0 0 0 -7.8408390935060055 0.8679920291629817 -3.1281453138434547 -49.092310497042625 -20.80416757349515 -37.35376554916546 -107.09775150714755 -4.209894370136269 7.690855510567382 1.0885263755084535 0.863147698318425 35.60491682569913 -0.7329566672696216 0.04371431549673348 6.7809283445531445 0.01387690807208417 8.171249034346507e-7 -0.017586973881500746 -0.006658369695021115 5.246904062470472e-7 -0.008642938152196536 3.5347961160735917 -0.4815672501631016 7.218836069440124 -4.082741582544526 -0.014207970893056258 -0.47449254832592624 -0.006758449640772338 0.000020379650932521195 -0.008641810904204867 -0.7331816716331735 0.0437455883006893 6.79680819101896 0.005995294821761996 -0.000009318056699620984 -0.03346315331558742 0.0033379068568787427 0.000009040400484371953 -0.00876617754039315 -0.7271974724865526 0.043032660421214085 6.780857191223465 0.0018779095269951492 -0.00000115454480981475 -0.01743197728435645 0.0009409959205926785 7.528314917706755e-7 -0.008741103776463057 -0.7515926221429955 -38.3417851550875 17.67209159357839 14.612630794929249 5.516724904172849 11.484044368188771 4.4345688956548 0.5423695163722009 7.349776404092173 10.042804324497949 2.6024837527215055 9.149622414489953 35.34398972685769 -24.722232202739207 42.63517890995743 110.49952116855393 -4.065436679527457 -7.979886855223727 2.764574629712101 4.687808004609268 -18.339248195124096 1.4946054187074196 0.18180282528614236 -14.045027444023061 0.028938712089543708 -0.000003388467286546414 0.00294381840823254 -0.010959249331754904 -0.0000043459909318405995 0.007952073536791188 1.5706481262996532 0.20083908226537556 -14.046388329185605 0.09663156195790157 -0.000010882985681096875 0.0020718676809482178 -0.057756838093381356 -0.000016070027633352356 0.008558986524751377 1.4570644712338179 0.17241814054009966 -14.044643942953162 0.09703303510244288 -0.000003930346071847465 0.0020642068550742417 -0.037757015793977035 -0.000004630668997604301 0.008298233720164156 1.530204628189848 0.19070434304380046 -14.045484662321947 -0.02575672473681473 -0.0000024291543884106256 0.003650349240249384 -0.013759015612112336 -0.000001482539485896238 0.007988239687901376 1.5001835152255407 -28.631683707958448 -27.48297925428166 -7.661026318901214 4.192205745150038 -0.52408714472544 0.858446434876372 -1.5602948157312537 -1.9607373507589345 -7.6103524586640985 -11.903511382995964 12.826032612950215 170.83381119947313 61.46927148803944 167.15353411297627 0.9975525168513375 -13.732989852675384 -4.974563295598928 0.13714569945729363 -41.06171414089562 -2.5444094823023065 -1.198368773486944 -7.6614876362889355 -11.19749734553337 -160.7240796379599 62.01747446377694 -157.7391903457946 -0.5875490288584473 -15.829810008055913 2.6852909974632113 -0.09655587601106337 -15.850113613102003 2.919860128344215
0.5188517570495605 -5.189698398492432 1.9403082132339478 3.925748278845662 -0.2760945769929509 -0.28345252036523355 -0.8484661395564844 -0.5125218187643314 -0.03578902302627868 -1.0060209286284663 -1.726989659965475 -0.3948861327881788 0 0 0 -0.5290037460164368 0.43295156229326004 3.868726493992809 2.176800263366046 -22.066100297975805 -4.232370422790012 0 0 0 0 0 0 -7.8408390935060055 0.8679920291629817 -3.1281453138434547 -49.095119937048025 -20.858249619357984 -37.32322796497634 -106.9799148246435 -4.214619537461585 7.6807004010222375 1.2654463787556123 0.7252402612330556 35.58287393046996 -0.7329566672696216 0.04371431549673348 6.7809283445531445 0.01387690807208417 8.171249034346507e-7 -0.017586973881500746 -0.006658369695021115 5.246904062470472e-7 -0.008642938152196536 3.5347961160735917 -0.4815672501631016 7.218836069440124 -4.082741582544526 -0.014207970893056258 -0.47449254832592624 -0.006758449640772338 0.000020379650932521195 -0.008641810904204867 -0.7331816716331735 0.0437455883006893 6.79680819101896 0.005995294821761996 -0.000009318056699620984 -0.03346315331558742 0.0033379068568787427 0.000009040400484371953 -0.00876617754039315 -0.7271974724865526 0.043032660421214085 6.780857191223465 0.0018779095269951492 -0.00000115454480981475 -0.01743197728435645 0.0009409959205926785 7.528314917706755e-7 -0.008741103776463057 -0.7515926221429955 -38.3417851550875 17.67209159357839 14.612630794929249 5.516724904172849 11.484044368188771 4.4345688956548 0.5423695163722009 7.349776404092173 10.051812950548015 2.6051795515663363 9.13481989127483 35.33694626173639 -24.764919470772153 42.62574236586646 110.36823082598814 -4.071372985802351 -7.968922088825471 2.714697421111851 4.442140595991816 -18.38798986180759 1.494608725971329 0.18180002382726285 -14.045009221344822 0.02893545374290676 0.000004654521223938031 0.002953562600202574 -0.010959249331754904 -0.0000043459909318405995 0.007952073536791188 1.5706495131690552 0.20083676105401446 -14.046368450550085 0.09663112840158483 -0.000003438096356462722 0.002080137154049602 -0.057756838093381356 -0.000016070027633352356 0.008558986524751377 1.457067778552003 0.1724153524229122 -14.04462654907188 0.09702977342499858 0.000004107609121798032 0.0020739547989923404 -0.037757015793977035 -0.000004630668997604301 0.008298233720164156 1.5302080420854922 0.19070152824321904 -14.045468096688813 -0.025759983083624243 0.000005616926333668453 0.0036600905140339378 -0.013759015612112336 -0.000001482539485896238 0.007988239687901376 1.5001835152255407 -28.631683707958448 -27.48297925428166 -7.661026318901214 4.192205745150038 -0.52408714472544 0.858446434876372 -1.5602948157312537 -1.9607373507589345 -7.600375675475334 -11.897181205357965 12.838444784137803 170.87570148003886 61.4772019404572 167.18871430398164 0.994928983722123 -13.73322891335064 -4.9535892202112075 0.13820609253882613 -41.0425852090671 -2.5581541760069495 -1.1908672362146369 -7.660520213424911 -11.182496294328777 -160.67545574461656 62.00995668834663 -157.69283957893944 -0.5912044845952005 -15.8403334068938 2.692685326787262 -0.09742191127499705 -15.863627407573455 2.9343394586083336
